<?xml version="1.0" encoding="UTF-8"?>
<!DOCTYPE svg PUBLIC "-//W3C//DTD SVG 1.1//EN" "http://www.w3.org/Graphics/SVG/1.1/DTD/svg11.dtd">
<!-- Creator: CorelDRAW -->
<svg xmlns="http://www.w3.org/2000/svg" xml:space="preserve" width="2.5in" height="2.5in" version="1.1" style="shape-rendering:geometricPrecision; text-rendering:geometricPrecision; image-rendering:optimizeQuality; fill-rule:evenodd; clip-rule:evenodd"
viewBox="0 0 384.8 384.8"
 xmlns:xlink="http://www.w3.org/1999/xlink"
 xmlns:xodm="http://www.corel.com/coreldraw/odm/2003">
 <defs>
  <style type="text/css">
   <![CDATA[
    .fil3 {fill:none}
    .fil1 {fill:#153870}
    .fil0 {fill:#1E7CBC}
    .fil2 {fill:#B3B3B3}
   ]]>
  </style>
 </defs>
 <g id="Layer_x0020_1">
  <metadata id="CorelCorpID_0Corel-Layer"/>
  <g id="_2583158310928">
   <g>
    <path class="fil0" d="M189.11 268.49l3.36 98.94c35.29,-33.55 72.73,-46.9 114.43,-52.77 0,-59.09 0,-121.24 0,-180.32 -32.97,53.21 -71.99,100.11 -117.79,134.15z"/>
    <path class="fil0" d="M184.09 67.54l60.84 -67.54 60.05 67.1 -27.72 0.12 1.1 71.31c-20.1,28.91 -42.84,54.23 -67.66,76.97l0 -148.33 -26.61 0.37z"/>
    <path class="fil1" d="M77.71 295.46c27.08,-9.35 59.62,-24.51 95.56,-49.18l0 -133.5 26.94 0 -60.29 -67.07 -60.93 67.07 26.29 0 0 33.22 -27.58 -14.05 0 163.52z"/>
    <path class="fil1" d="M59.91 327.17l0 -162.63 -20.61 0 0 182.36c52.26,2.39 102.57,14.45 150.6,37.89 -28.8,-34.8 -73.71,-52.31 -129.99,-57.63z"/>
    <path class="fil1" d="M324.69 327.17l0 -162.63 20.61 0 0 182.36c-52.26,2.39 -102.57,14.45 -150.6,37.89 28.8,-34.8 73.71,-52.31 129.99,-57.63z"/>
    <path class="fil1" d="M192.47 367.43l0.23 -101.34c-31.65,21.18 -60.02,38.89 -93.51,50.45 40.42,11.62 66.7,25.85 93.28,50.89z"/>
    <path class="fil2" d="M99.19 316.54l-21.49 -21.08c107.3,-41.21 164.41,-93.06 245.1,-238.81l1.1 -4.41 19.86 -19.42 -2.3 33.53 -3.77 -1.12c-35.81,110.42 -122.38,210.81 -238.5,251.3z"/>
    <path class="fil2" d="M345.5 72.74c-12.21,-13.61 -22.19,-17.9 -37.99,-18.41l37.76 -31.59 0.23 50z"/>
   </g>
   <rect class="fil3" x="0" width="384.8" height="384.8"/>
  </g>
 </g>
</svg>
