<?xml version="1.0" encoding="UTF-8"?>
<!DOCTYPE svg PUBLIC "-//W3C//DTD SVG 1.1//EN" "http://www.w3.org/Graphics/SVG/1.1/DTD/svg11.dtd">
<!-- Creator: CorelDRAW -->
<svg xmlns="http://www.w3.org/2000/svg" xml:space="preserve" width="9.64792in" height="2.89022in" version="1.1" style="shape-rendering:geometricPrecision; text-rendering:geometricPrecision; image-rendering:optimizeQuality; fill-rule:evenodd; clip-rule:evenodd"
viewBox="0 0 10366.02 3105.34"
 xmlns:xlink="http://www.w3.org/1999/xlink"
 xmlns:xodm="http://www.corel.com/coreldraw/odm/2003">
 <defs>
  <style type="text/css">
   <![CDATA[
    .str0 {stroke:#999999;stroke-width:22.39;stroke-miterlimit:22.9256}
    .fil2 {fill:none}
    .fil5 {fill:#153870}
    .fil3 {fill:#183D71}
    .fil4 {fill:#1E7CBC}
    .fil6 {fill:#B3B3B3}
    .fil0 {fill:#183D71;fill-rule:nonzero}
    .fil1 {fill:#1E7CBC;fill-rule:nonzero}
   ]]>
  </style>
 </defs>
 <g id="Layer_x0020_1">
  <metadata id="CorelCorpID_0Corel-Layer"/>
  <polygon class="fil0" points="3710.14,2230.85 3710.14,1034.84 3955.46,1034.84 3955.46,1792.15 4212.5,1451.94 4522.15,1451.94 4204.13,1826.65 4550.84,2230.85 4222.3,2230.85 3955.46,1884.58 3955.46,2230.85 "/>
  <path id="_1" class="fil0" d="M4622.81 1208.63c0,-41.6 13.39,-76.89 40.41,-106.12 26.78,-29.23 59.06,-43.97 97.08,-43.97 39.22,0 71.97,14.48 98.28,43.18 26.54,28.7 39.69,64.25 39.69,106.91 0,42.66 -13.4,78.73 -40.41,108.49 -26.78,29.76 -59.3,44.77 -97.56,44.77 -37.54,0 -69.82,-15.27 -96.84,-45.55 -27.02,-30.28 -40.65,-66.09 -40.65,-107.7zm12.91 1022.21l0 -778.9 249.63 0 0 778.9 -249.63 0z"/>
  <polygon id="_2" class="fil0" points="5083.34,2230.85 5083.34,1034.84 5332.97,1034.84 5332.97,2230.85 "/>
  <polygon id="_3" class="fil0" points="5530.95,2230.85 5530.95,1034.84 5780.58,1034.84 5780.58,2230.85 "/>
  <path class="fil1" d="M6276.31 2230.85l0 -515.58 -405 -614.06 362.34 0 155.79 290.97c1.08,1.58 2.7,4.21 4.86,8.43 16.2,30.28 27.54,59.51 34.02,87.16 5.13,-25.28 16.47,-53.19 34.02,-84 2.97,-5.79 5.13,-9.48 6.21,-11.59l154.17 -290.97 363.15 0 -405 614.06 0 515.58 -304.56 0z"/>
  <path id="_1_7" class="fil1" d="M7478.61 1840.61c0,-60.83 -16.47,-108.75 -49.68,-144.3 -33.21,-35.55 -78.57,-53.19 -136.08,-53.19 -57.51,0 -102.6,17.64 -135.54,52.93 -32.94,35.02 -49.41,83.47 -49.41,144.56 0,60.57 16.47,108.49 49.68,143.51 33.21,35.02 78.3,52.4 135.27,52.4 57.51,0 102.87,-17.38 136.08,-52.4 33.21,-35.02 49.68,-82.95 49.68,-143.51zm248.13 -388.66l0 778.9 -259.2 0 0 -126.39c-36.99,53.98 -78.3,93.48 -124.47,118.76 -46.17,25.02 -100.44,37.66 -162.54,37.66 -106.65,0 -191.7,-37.92 -255.69,-113.76 -63.72,-75.84 -95.58,-177.74 -95.58,-305.18 0,-127.18 33.48,-228.04 100.17,-303.08 66.69,-74.78 156.33,-112.18 269.19,-112.18 60.21,0 112.05,12.64 155.52,37.66 43.47,25.02 80.73,63.46 111.78,115.6l0 -127.98 260.82 0z"/>
  <path id="_2_8" class="fil1" d="M7940.85 2230.85l0 -778.9 265.95 0 0 183.53c27.54,-67.14 64.8,-117.18 112.32,-150.62 47.52,-33.44 105.03,-50.3 172.53,-50.3 11.07,0 22.41,0.27 33.75,1.05 11.34,0.79 22.68,2.11 34.29,3.69l-27.54 249.63c-16.74,-5.53 -33.48,-9.48 -49.68,-12.11 -16.47,-2.37 -32.13,-3.69 -47.52,-3.69 -68.31,0 -120.96,20.54 -158.22,61.35 -36.99,40.82 -55.62,98.75 -55.62,173.8l0 322.57 -280.26 0z"/>
  <path id="_3_9" class="fil1" d="M9273.3 1842.19c0,-60.57 -16.47,-108.49 -49.41,-143.51 -32.67,-35.02 -77.76,-52.4 -134.46,-52.4 -56.97,0 -101.79,17.38 -134.46,52.4 -32.67,35.02 -48.87,82.95 -48.87,143.51 0,61.09 16.2,109.01 48.6,143.77 32.4,34.76 77.22,52.14 134.73,52.14 56.7,0 101.79,-17.38 134.46,-52.4 32.94,-35.02 49.41,-82.95 49.41,-143.51zm250.02 -807.34l0 1196 -259.47 0 0 -126.39c-35.91,52.4 -76.14,91.64 -120.96,117.44 -44.82,26.07 -94.5,38.98 -149.31,38.98 -112.32,0 -201.69,-37.92 -268.11,-113.49 -66.42,-75.57 -99.63,-177.48 -99.63,-305.45 0,-124.02 33.21,-224.35 99.36,-300.71 66.15,-76.36 152.28,-114.55 258.66,-114.55 67.5,0 122.58,11.85 164.97,35.55 42.39,23.7 80.19,63.46 113.4,119.02 -3.24,-18.43 -5.4,-39.5 -7.02,-62.93 -1.62,-23.43 -2.43,-48.98 -2.43,-76.1l0 -407.36 270.54 0z"/>
  <path id="_4" class="fil1" d="M9658.05 2166.07l58.59 -210.13c41.31,35.02 86.4,61.88 135.81,80.84 49.41,18.69 99.09,28.17 149.04,28.17 35.37,0 62.37,-5.53 80.73,-16.59 18.63,-11.06 27.81,-27.12 27.81,-48.19 0,-34.5 -37.26,-60.3 -111.78,-77.42 -24.3,-5.53 -44.01,-10.53 -58.59,-14.48 -84.51,-22.65 -145.53,-52.4 -183.87,-89.27 -38.07,-36.6 -57.24,-84.53 -57.24,-142.98 0,-75.84 29.16,-136.14 87.48,-181.43 58.32,-45.29 137.16,-67.94 236.79,-67.94 51.3,0 103.41,5.79 156.33,17.38 52.92,11.59 107.19,29.5 162.54,53.72l-58.59 189.59c-37.25,-24.75 -75.33,-43.71 -113.94,-56.61 -38.61,-12.9 -76.95,-19.22 -115.56,-19.22 -32.13,0 -56.43,5 -72.9,14.75 -16.47,9.74 -24.57,23.96 -24.57,42.39 0,27.65 36.99,51.08 110.97,70.31 17.01,4.48 29.7,7.9 38.07,10 97.47,27.12 165.24,59.25 203.58,95.85 38.07,36.86 57.24,86.64 57.24,149.3 0,79.52 -31.32,144.04 -94.23,193.01 -62.64,49.24 -145.8,73.73 -248.94,73.73 -70.2,0 -135.27,-7.9 -195.48,-23.44 -60.21,-15.8 -116.64,-39.5 -169.29,-71.36z"/>
  <polygon class="fil0" points="6607.51,2927.36 6432.79,2542.01 6558.52,2542.01 6641.8,2746.93 6720.04,2542.01 6844.27,2542.01 6680.17,2927.36 "/>
  <path id="_1_10" class="fil0" d="M7240.23 2878.65c-25.71,16.74 -52.93,29.25 -81.5,37.28 -28.57,8.16 -59.06,12.25 -91.44,12.25 -65.04,0 -116.07,-17.83 -152.95,-53.48 -36.87,-35.51 -55.38,-84.91 -55.38,-147.91 0,-58.1 18.1,-104.77 54.16,-139.74 36.19,-34.97 84.36,-52.38 144.37,-52.38 59.19,0 106,18.91 140.29,56.74 34.29,37.83 51.44,90.08 51.44,156.48l0 3.95 -267.79 0 0 1.63c0,29.94 10.2,53.61 30.75,71.03 20.41,17.42 48.44,26.13 84.09,26.13 23.95,0 47.9,-4.22 71.85,-12.79 23.81,-8.44 47.9,-21.09 72.11,-37.83l0 78.65zm-257.99 -184.78l146.96 -0.41c-2.18,-24.36 -9.53,-43.54 -22.18,-57.28 -12.65,-13.74 -28.98,-20.68 -48.85,-20.68 -20.55,0 -37.55,6.94 -51.02,20.68 -13.34,13.74 -21.77,33.06 -24.9,57.69z"/>
  <path id="_2_11" class="fil0" d="M7313.84 2920.01l0 -378 119.2 0 0 101.23c20.27,-38.1 39.6,-65.45 58.24,-82.05 18.64,-16.6 39.05,-24.9 61.09,-24.9 10.88,0 22.31,2.17 34.42,6.67 12.11,4.49 25.72,11.56 40.55,20.96l-31.97 108.72c-11.84,-9.39 -22.99,-16.19 -33.07,-20.55 -10.07,-4.22 -20.14,-6.4 -29.94,-6.4 -22.59,0 -42.86,9.94 -60.82,29.94 -17.96,20 -30.75,47.22 -38.51,81.91l0 162.47 -119.2 0z"/>
  <path id="_3_12" class="fil0" d="M7647.89 2899.74l0 -84.23c23.95,10.89 46.13,19.32 66.4,25.31 20.41,5.99 37.42,8.98 51.3,8.98 18.91,0 33.07,-2.45 42.59,-7.21 9.66,-4.76 14.42,-11.98 14.42,-21.5 0,-8.03 -3.54,-15.1 -10.75,-21.36 -7.21,-6.26 -23.54,-14.7 -49.12,-25.31 -2.59,-1.09 -6.94,-2.72 -12.79,-5.17 -72.39,-29.93 -108.59,-68.44 -108.59,-115.52 0,-35.79 13.34,-64.63 40.14,-86.4 26.67,-21.77 62.05,-32.66 106.27,-32.66 23.54,0 45.99,2.45 67.08,7.48 21.23,5.03 41.77,12.65 61.64,22.72l0 83.27c-25.04,-13.33 -47.35,-22.99 -66.95,-29.12 -19.46,-6.12 -37.55,-9.25 -54.02,-9.25 -14.42,0 -25.44,2.58 -33.2,7.62 -7.76,5.04 -11.56,12.25 -11.56,21.5 0,12.25 21.5,27.21 64.63,45.04 17.55,6.94 31.43,12.66 41.5,17.28 27.62,11.84 47.76,26.26 60.28,43 12.65,16.73 18.91,37.55 18.91,62.32 0,39.05 -13.47,69.12 -40.41,90.08 -27.08,21.09 -65.31,31.57 -115.12,31.57 -24.63,0 -48.03,-2.31 -70.35,-6.94 -22.18,-4.76 -42.86,-11.84 -62.32,-21.5z"/>
  <path id="_4_13" class="fil0" d="M8198.29 2829.67l0 -92.53c-40.68,14.28 -67.9,26.94 -81.5,37.69 -13.74,10.75 -20.55,23.54 -20.55,38.37 0,12.25 3.67,21.9 11.16,29.12 7.48,7.21 17.69,10.75 30.75,10.75 8.71,0 18.1,-2.04 28.3,-5.99 10.07,-3.95 20.68,-9.8 31.84,-17.42zm5.99 55.38c-17.83,14.42 -36.33,25.04 -55.65,31.97 -19.18,6.94 -39.87,10.34 -61.91,10.34 -36.47,0 -63.95,-8.85 -82.6,-26.54 -18.64,-17.69 -27.89,-43.95 -27.89,-78.78 0,-30.34 13.74,-55.24 41.23,-74.84 27.49,-19.59 87.76,-42.86 180.83,-69.66 0.27,-1.36 0.41,-2.86 0.55,-4.36 0.14,-1.63 0.27,-3.81 0.27,-6.53 0,-17.96 -6.12,-31.29 -18.1,-39.87 -12.11,-8.57 -30.75,-12.93 -56.06,-12.93 -21.23,0 -43,5.17 -65.45,15.51 -22.32,10.34 -44.09,25.31 -65.32,44.9l1.63 -93.89c22.86,-15.38 48.03,-26.81 75.52,-34.42 27.49,-7.49 58.37,-11.29 92.66,-11.29 54.56,0 94.03,10.48 118.38,31.43 24.49,20.96 36.74,54.43 36.74,100.56l0 150.63c0,8.84 1.23,14.83 3.54,18.37 2.45,3.4 6.39,5.17 11.97,5.17 5.17,0 10.34,-0.68 15.79,-2.04 5.44,-1.23 12.79,-3.81 21.77,-7.48l0 66.13c-21.5,10.34 -40.69,17.96 -57.29,22.72 -16.6,4.76 -32.39,7.21 -47.22,7.21 -18.91,0 -33.75,-3.54 -44.5,-10.61 -10.75,-7.08 -17.01,-17.55 -18.91,-31.7z"/>
  <path id="_5" class="fil0" d="M8437.64 2624.47l-53.88 0 0 -25.44 154.3 -167.23 17.96 0 0 110.22 129 0 0 82.46 -129 0 0 139.61c0,28.98 4.08,48.44 12.38,58.1 8.16,9.66 23.13,14.56 44.91,14.56 10.61,0 21.91,-1.49 33.74,-4.62 11.7,-2.99 24.49,-7.76 37.96,-14.15l0.82 88.99c-19.19,7.21 -38.37,12.52 -57.42,16.06 -19.18,3.4 -38.24,5.17 -57.15,5.17 -48.03,0 -82.46,-12.38 -102.87,-37.15 -20.55,-24.76 -30.75,-67.35 -30.75,-127.77l0 -138.79z"/>
  <path id="_6" class="fil0" d="M8745.43 2920.01l0 -378 119.2 0 0 378 -119.2 0zm-4.08 -500.33c0,-17.83 6.13,-32.93 18.51,-45.31 12.38,-12.38 27.35,-18.5 45.18,-18.5 18.1,0 33.2,6.12 45.31,18.37 12.25,12.25 18.37,27.35 18.37,45.45 0,17.96 -6.13,32.93 -18.37,45.18 -12.11,12.25 -27.21,18.37 -45.31,18.37 -17.83,0 -32.8,-6.12 -45.18,-18.5 -12.38,-12.39 -18.51,-27.35 -18.51,-45.04z"/>
  <polygon id="_7" class="fil0" points="8951.17,2920.01 8951.17,2362.4 9070.37,2362.4 9070.37,2920.01 "/>
  <path id="_8" class="fil0" d="M9156.91 2920.01l0 -378 119.2 0 0 378 -119.2 0zm-4.08 -500.33c0,-17.83 6.13,-32.93 18.51,-45.31 12.38,-12.38 27.35,-18.5 45.18,-18.5 18.1,0 33.2,6.12 45.31,18.37 12.25,12.25 18.37,27.35 18.37,45.45 0,17.96 -6.13,32.93 -18.37,45.18 -12.11,12.25 -27.21,18.37 -45.31,18.37 -17.83,0 -32.8,-6.12 -45.18,-18.5 -12.38,-12.39 -18.51,-27.35 -18.51,-45.04z"/>
  <path id="_9" class="fil0" d="M9378.97 2624.47l-53.88 0 0 -25.44 154.3 -167.23 17.96 0 0 110.22 129 0 0 82.46 -129 0 0 139.61c0,28.98 4.08,48.44 12.38,58.1 8.16,9.66 23.13,14.56 44.91,14.56 10.61,0 21.91,-1.49 33.74,-4.62 11.7,-2.99 24.49,-7.76 37.96,-14.15l0.82 88.99c-19.19,7.21 -38.37,12.52 -57.42,16.06 -19.18,3.4 -38.24,5.17 -57.15,5.17 -48.03,0 -82.46,-12.38 -102.87,-37.15 -20.55,-24.76 -30.75,-67.35 -30.75,-127.77l0 -138.79z"/>
  <path id="_10" class="fil0" d="M9703.09 2624.47l-53.88 0 0 -25.44 154.3 -167.23 17.96 0 0 110.22 129 0 0 82.46 -129 0 0 139.61c0,28.98 4.08,48.44 12.38,58.1 8.16,9.66 23.13,14.56 44.91,14.56 10.61,0 21.91,-1.49 33.74,-4.62 11.7,-2.99 24.49,-7.76 37.96,-14.15l0.82 88.99c-19.19,7.21 -38.37,12.52 -57.42,16.06 -19.18,3.4 -38.24,5.17 -57.15,5.17 -48.03,0 -82.46,-12.38 -102.87,-37.15 -20.55,-24.76 -30.75,-67.35 -30.75,-127.77l0 -138.79z"/>
  <polygon id="_11" class="fil0" points="10111.17,3105.34 9986.39,3105.34 10098.37,2859.33 9954.55,2542.01 10082.05,2542.01 10158.65,2726.66 10240.43,2542.01 10366.02,2542.01 "/>
  <polyline class="fil2 str0" points="3064.28,953.87 3064.28,1248.2 3391.59,1392.5 "/>
  <line class="fil2 str0" x1="2952.62" y1="869.41" x2="2952.62" y2= "983.24" />
  <circle class="fil2 str0" cx="2952.62" cy="1029.65" r="50.36"/>
  <circle class="fil2 str0" cx="3438.36" cy="1411.2" r="50.36"/>
  <polyline class="fil2 str0" points="3012.03,2114.24 3012.03,1819.92 2684.72,1675.62 "/>
  <line class="fil2 str0" x1="3123.68" y1="2198.7" x2="3123.68" y2= "2084.88" />
  <circle class="fil2 str0" cx="3123.68" cy="2038.47" r="50.36"/>
  <circle class="fil2 str0" cx="2637.94" cy="1656.92" r="50.36"/>
  <polygon class="fil3" points="2591.83,944.03 2849.62,756.53 2851.25,1225.66 3476.14,1689.2 3476.14,2110.77 3209.37,2318.24 3209.37,1827.63 2591.83,1380.95 "/>
  <path class="fil4" d="M3227.56 1075.32l-287.64 -196.98 0 -183.55 91.77 -69.39 561.84 409.63 -292.11 210.41c-56.74,23.58 -76.83,-44.46 -73.87,-170.12z"/>
  <path class="fil4" d="M2847.02 1977.55l287.64 196.98 0 183.55 -91.77 69.39 -561.84 -409.63 292.11 -210.41c56.74,-23.58 76.83,44.46 73.87,170.12z"/>
  <g id="_1317210792384">
   <path class="fil4" d="M1010.67 473.35l424.67 -473.35 419.2 470.27 -193.49 0.84 7.68 499.75c-140.31,202.61 -299.05,380.1 -472.3,539.46l0 -1039.56 -185.76 2.58z"/>
   <path class="fil4" d="M1045.72 1881.72l23.44 693.43c246.35,-235.11 507.67,-328.73 798.78,-369.84 0,-414.1 0,-849.7 0,-1263.8 -230.16,372.91 -502.52,701.6 -822.22,940.21z"/>
   <path class="fil5" d="M268.05 2070.72c189.01,-65.5 416.19,-171.77 667.04,-344.71l0 -935.65 188.03 0 -420.82 -470.06 -425.29 470.06 183.55 0 0 232.79 -192.5 -98.49 0 1146.06z"/>
   <path class="fil5" d="M143.86 2293.03l0 -1139.77 -143.86 0 0 1278.09c364.77,16.77 715.99,101.27 1051.25,265.58 -201.03,-243.87 -514.55,-366.59 -907.39,-403.9z"/>
   <path class="fil5" d="M1992.08 2293.03l0 -1139.77 143.86 0 0 1278.09c-364.77,16.77 -715.99,101.27 -1051.25,265.58 201.03,-243.87 514.55,-366.59 907.39,-403.9z"/>
   <path class="fil5" d="M1069.16 2575.14l1.63 -710.23c-220.9,148.41 -418.99,272.53 -652.75,353.55 282.12,81.44 465.62,181.19 651.12,356.68z"/>
   <path class="fil6" d="M418.03 2218.47l-149.98 -147.74c749.01,-288.8 1147.64,-652.21 1710.86,-1673.72l7.68 -30.89 138.6 -136.09 -16.04 235.03 -26.3 -7.83c-249.96,773.88 -854.26,1477.49 -1664.81,1761.25z"/>
   <path class="fil6" d="M2137.36 509.8c-85.24,-95.39 -154.9,-125.43 -265.18,-129.01l263.6 -221.38 1.58 350.4z"/>
  </g>
  <rect class="fil2" width="10366.02" height="3105.34"/>
 </g>
</svg>
